<svg width="70" height="77" viewBox="0 0 70 77" fill="none" xmlns="http://www.w3.org/2000/svg">
<path d="M53.1015 11.5302C52.7598 11.1508 52.353 10.8497 51.9048 10.6445C51.4566 10.4392 50.9757 10.3338 50.4902 10.3344L47.4598 10.3283L47.8708 9.86581C48.2033 9.50927 48.4681 9.08375 48.6501 8.61387C48.8321 8.14398 48.9275 7.63907 48.9309 7.12835C48.9343 6.61763 48.8456 6.11123 48.6699 5.63847C48.4942 5.16572 48.235 4.73598 47.9073 4.37413C47.5796 4.01229 47.19 3.72552 46.7609 3.53042C46.3318 3.33532 45.8718 3.23576 45.4075 3.23751C44.9432 3.23926 44.4838 3.34228 44.0559 3.54061C43.628 3.73894 43.2402 4.02864 42.9148 4.39295L37.9141 9.87318L34.2452 5.82226C33.9205 5.46177 33.534 5.17572 33.1081 4.98066C32.6822 4.78561 32.2253 4.68542 31.764 4.68591H31.7573C31.1577 4.68644 30.5682 4.85575 30.0449 5.17771C29.5216 5.49968 29.0819 5.96359 28.7677 6.5253C28.4535 7.08701 28.2751 7.72783 28.2496 8.38678C28.2242 9.04573 28.3524 9.70089 28.6222 10.2899L25.1789 10.2828H25.172C24.1932 10.2828 23.2544 10.7101 22.5616 11.4707C21.8689 12.2313 21.4789 13.2633 21.4771 14.3399L21.4698 18.8163C21.4696 18.9349 21.4906 19.0525 21.5318 19.1621C21.5729 19.2718 21.6333 19.3715 21.7095 19.4554C21.7857 19.5394 21.8762 19.606 21.9758 19.6515C22.0754 19.6969 22.1822 19.7203 22.2901 19.7203H23.5036V35.8306C23.5047 36.9082 23.8944 37.9413 24.5871 38.7032C25.2797 39.4652 26.2189 39.8938 27.1985 39.8951H48.4502C49.4299 39.8938 50.369 39.4652 51.0617 38.7032C51.7544 37.9413 52.1441 36.9082 52.1452 35.8306V19.7203H53.3515C53.5688 19.7203 53.7772 19.6255 53.931 19.4566C54.0848 19.2877 54.1714 19.0586 54.1718 18.8196L54.179 14.4066C54.1813 13.8726 54.0872 13.3434 53.9023 12.8496C53.7173 12.3559 53.4451 11.9074 53.1015 11.5302ZM44.0725 5.67142C44.2471 5.4812 44.454 5.33066 44.6814 5.2284C44.9088 5.12614 45.1524 5.07416 45.3981 5.07542C45.6438 5.07669 45.8868 5.13117 46.1134 5.23577C46.34 5.34037 46.5456 5.49302 46.7185 5.68503C46.8914 5.87703 47.0283 6.10463 47.1212 6.35481C47.2142 6.60499 47.2615 6.87287 47.2603 7.14314C47.2592 7.41341 47.2096 7.68079 47.1145 7.93001C47.0194 8.17922 46.8807 8.4054 46.7061 8.59561L45.1801 10.3122H39.8378L44.0725 5.67142ZM30.437 7.09066C30.6102 6.89977 30.8161 6.74847 31.0427 6.64549C31.2693 6.5425 31.5122 6.48986 31.7574 6.4906H31.761C32.0068 6.49038 32.2502 6.54378 32.4771 6.64771C32.7041 6.75164 32.91 6.90403 33.0831 7.09607L35.9893 10.305L30.6594 10.2522L30.4321 10.001C30.0819 9.61433 29.8856 9.09046 29.8866 8.54464C29.8875 7.99882 30.0855 7.47575 30.437 7.0905V7.09066ZM33.4376 38.0904H27.1985C26.6539 38.0897 26.1317 37.8514 25.7466 37.4277C25.3615 37.0041 25.1448 36.4297 25.1442 35.8306V19.7203H33.4463L33.4376 38.0904ZM33.4471 17.9156H23.1119L23.1178 14.3432C23.1187 13.7446 23.3355 13.1709 23.7207 12.7479C24.1058 12.325 24.6278 12.0874 25.172 12.0874H25.1761L33.4499 12.1042L33.4471 17.9156ZM40.7463 38.0904H35.0782L35.0869 19.7203H40.7549L40.7463 38.0904ZM40.7557 17.9156H35.0878L35.0905 12.1077L40.7584 12.1193L40.7557 17.9156ZM50.5046 35.8306C50.504 36.4297 50.2873 37.0041 49.9022 37.4277C49.5171 37.8514 48.9949 38.0897 48.4502 38.0904H42.3869L42.3955 19.7203H50.5046V35.8306ZM52.5325 17.9156H42.3965L42.3992 12.1226L50.488 12.1391C50.7578 12.1396 51.0249 12.1986 51.274 12.3127C51.5231 12.4267 51.7493 12.5936 51.9397 12.8039C52.1302 13.0141 52.2811 13.2635 52.3839 13.5379C52.4867 13.8123 52.5393 14.1063 52.5388 14.4031L52.5325 17.9156Z" fill="black"/>
<path d="M61.5264 46.7689L61.0909 47.0274C59.6601 45.0537 57.1307 44.2764 55.2109 45.3469C55.2047 45.3504 55.1986 45.3538 55.1925 45.3574L54.2746 45.9014C53.2672 44.9427 52.0136 44.3527 50.6876 44.2132C49.3616 44.0736 48.029 44.3915 46.8747 45.1227L42.2311 47.9003H36.0571C34.7109 47.8983 33.3823 47.5634 32.1697 46.9203L31.3239 46.4708C28.9323 45.1907 26.2653 44.6636 23.6182 44.948C20.9711 45.2323 18.4471 46.317 16.3259 48.0819C16.308 48.097 16.2905 48.112 16.2736 48.1288L14.2324 50.1283C13.4881 50.8568 5.80099 55.2987 1.13026 57.9277C1.03436 57.9817 0.949064 58.0559 0.87924 58.1461C0.809415 58.2364 0.756433 58.3408 0.723316 58.4536C0.6902 58.5664 0.677599 58.6852 0.686232 58.8033C0.694866 58.9214 0.724565 59.0365 0.773633 59.142C0.822702 59.2475 0.89018 59.3413 0.972214 59.4181C1.05425 59.495 1.14923 59.5532 1.25174 59.5897C1.35425 59.6261 1.46228 59.6399 1.56966 59.6305C1.67704 59.621 1.78167 59.5883 1.87757 59.5343C3.92616 58.3813 14.2018 52.5742 15.323 51.4762L17.3392 49.5016C19.2191 47.946 21.4529 46.9915 23.7945 46.7434C26.136 46.4952 28.4944 46.963 30.6097 48.0952L31.4553 48.545C32.8908 49.3062 34.4635 49.7026 36.0571 49.7049H44.2585C45.5084 49.7067 46.7173 50.1957 47.6706 51.085C48.6238 51.9743 49.2598 53.2064 49.4655 54.5626L43.3977 54.261C41.2427 54.1545 39.0834 54.2642 36.9466 54.5889C36.839 54.6039 36.7352 54.6423 36.6412 54.7018C36.5471 54.7614 36.4648 54.8408 36.3988 54.9355C36.3329 55.0303 36.2847 55.1385 36.257 55.2539C36.2294 55.3692 36.2228 55.4895 36.2377 55.6077C36.2525 55.7259 36.2886 55.8397 36.3437 55.9424C36.3988 56.0452 36.4719 56.1349 36.5587 56.2064C36.6456 56.2779 36.7445 56.3298 36.8496 56.3589C36.9548 56.3881 37.0642 56.3941 37.1715 56.3764C39.2094 56.0667 41.2687 55.9621 43.3238 56.0639L50.3193 56.4122C50.4301 56.4177 50.5408 56.3985 50.6446 56.3556C50.7485 56.3127 50.8433 56.2471 50.9235 56.1628C51.0036 56.0784 51.0674 55.9771 51.1109 55.8649C51.1544 55.7526 51.1768 55.6319 51.1767 55.5099C51.1767 55.3247 51.1686 55.1417 51.1567 54.9597L52.1727 54.3705L62.3062 48.3571C63.1211 47.8717 64.0612 47.7031 64.9741 47.8786C65.887 48.0541 66.7193 48.5635 67.3363 49.3241L46.7578 64.8664C44.0523 66.3169 40.9979 66.7846 38.0352 66.202L25.7344 63.7104C24.4027 63.3483 22.9956 63.5588 21.8001 64.2988L9.47598 72.0477C9.38192 72.1062 9.29929 72.1846 9.23284 72.2783C9.16639 72.372 9.11742 72.4792 9.08876 72.5938C9.0601 72.7084 9.0523 72.8281 9.06581 72.9461C9.07932 73.064 9.11388 73.1778 9.16751 73.281C9.22113 73.3842 9.29275 73.4747 9.37827 73.5474C9.46379 73.62 9.56151 73.6734 9.66583 73.7044C9.77015 73.7353 9.879 73.7434 9.98614 73.7279C10.0933 73.7125 10.1966 73.6739 10.2901 73.6145L22.6075 65.8694C23.4449 65.3528 24.4304 65.209 25.3612 65.4675C25.3781 65.4723 25.3952 65.4764 25.4125 65.4797L37.7404 67.9771C41.0699 68.6322 44.5026 68.0992 47.5371 66.4559C47.572 66.4369 47.6055 66.4153 47.6376 66.3911L68.9609 50.2862C69.1333 50.156 69.254 49.9584 69.2983 49.7336C69.3427 49.5089 69.3073 49.274 69.1995 49.0769C68.4368 47.6793 67.2134 46.6593 65.784 46.2293C64.3546 45.7994 62.8295 45.9926 61.5264 46.7689ZM47.668 46.7025L47.6875 46.6905C48.4524 46.204 49.325 45.9605 50.2083 45.9871C51.0915 46.0136 51.9507 46.3092 52.6903 46.8409L48.3746 49.3987C47.5161 48.6967 46.5206 48.2244 45.4672 48.0194L47.668 46.7025ZM51.4004 52.7783L50.8229 53.1132C50.5581 52.2385 50.151 51.4241 49.6213 50.7097L55.9609 46.952C57.0984 46.3248 58.6395 46.7741 59.6125 47.9049L51.4004 52.7783Z" fill="black"/>
</svg>
