<svg width="70" height="70" viewBox="0 0 70 70" fill="none" xmlns="http://www.w3.org/2000/svg">
<path d="M52.8676 41.6176C48.0022 41.6176 44.0441 45.5757 44.0441 50.4411C44.0441 55.3065 48.0022 59.2647 52.8676 59.2647C57.7339 59.2647 61.6912 55.3065 61.6912 50.4411C61.6912 45.5757 57.733 41.6176 52.8676 41.6176ZM52.8676 54.8529C50.4346 54.8529 48.4559 52.8742 48.4559 50.4411C48.4559 48.0081 50.4346 46.0293 52.8676 46.0293C55.3007 46.0293 57.2794 48.0081 57.2794 50.4411C57.2794 52.8743 55.3007 54.8529 52.8676 54.8529Z" fill="black"/>
<path d="M22.7206 41.6176C17.8552 41.6176 13.897 45.5757 13.897 50.4411C13.897 55.3065 17.8552 59.2647 22.7206 59.2647C27.586 59.2647 31.5442 55.3065 31.5442 50.4411C31.5442 45.5757 27.586 41.6176 22.7206 41.6176ZM22.7206 54.8529C20.2876 54.8529 18.3088 52.8742 18.3088 50.4411C18.3088 48.0081 20.2876 46.0293 22.7206 46.0293C25.153 46.0293 27.1324 48.0081 27.1324 50.4411C27.1324 52.8743 25.1536 54.8529 22.7206 54.8529Z" fill="black"/>
<path d="M58.8096 16.3618C58.4346 15.617 57.6721 15.1471 56.8382 15.1471H45.2206V19.5589H55.4779L61.4845 31.5059L65.4272 29.5235L58.8096 16.3618Z" fill="black"/>
<path d="M46.25 48.3088H29.5589V52.7206H46.25V48.3088Z" fill="black"/>
<path d="M16.1029 48.3088H8.45591C7.23747 48.3088 6.25009 49.2964 6.25009 50.5147C6.25009 51.7331 7.23761 52.7205 8.45591 52.7205H16.103C17.3214 52.7205 18.3088 51.733 18.3088 50.5147C18.3088 49.2962 17.3213 48.3088 16.1029 48.3088Z" fill="black"/>
<path d="M69.5368 34.8235L65.1979 29.2352C64.781 28.697 64.1376 28.3823 63.456 28.3823H47.4265V12.9411C47.4265 11.7227 46.439 10.7353 45.2207 10.7353H8.45591C7.23747 10.7353 6.25009 11.7228 6.25009 12.9411C6.25009 14.1594 7.23761 15.1469 8.45591 15.1469H43.0147V30.5881C43.0147 31.8065 44.0022 32.7939 45.2205 32.7939H62.3757L65.5882 36.9321V48.3086H59.4852C58.2668 48.3086 57.2794 49.2961 57.2794 50.5144C57.2794 51.7329 58.2669 52.7202 59.4852 52.7202H67.794C69.0125 52.7202 69.9999 51.7327 70 50.5144V36.1765C70 35.6867 69.8368 35.2103 69.5368 34.8235Z" fill="black"/>
<path d="M15.9559 37.1324H5.80877C4.59033 37.1324 3.60295 38.12 3.60295 39.3383C3.60295 40.5567 4.59047 41.5441 5.80877 41.5441H15.9558C17.1742 41.5441 18.1616 40.5566 18.1616 39.3383C18.1617 38.12 17.1742 37.1324 15.9559 37.1324Z" fill="black"/>
<path d="M21.0294 28.4558H2.20582C0.98752 28.4558 0 29.4433 0 30.6618C0 31.8802 0.98752 32.8676 2.20582 32.8676H21.0294C22.2478 32.8676 23.2352 31.8801 23.2352 30.6618C23.2352 29.4435 22.2478 28.4558 21.0294 28.4558Z" fill="black"/>
<path d="M24.6323 19.7794H5.80877C4.59033 19.7794 3.60295 20.7669 3.60295 21.9852C3.60295 23.2036 4.59047 24.191 5.80877 24.191H24.6323C25.8508 24.191 26.8382 23.2035 26.8382 21.9852C26.8383 20.7669 25.8508 19.7794 24.6323 19.7794Z" fill="black"/>
</svg>
