<svg width="70" height="70" viewBox="0 0 70 70" fill="none" xmlns="http://www.w3.org/2000/svg">
<g clip-path="url(#clip0_4_79)">
<path d="M23.5908 53.5804C23.573 53.4929 23.5471 53.4067 23.5129 53.3233C23.4787 53.2413 23.4363 53.162 23.3871 53.0882C23.3379 53.013 23.2805 52.9433 23.2176 52.8804C23.1547 52.8175 23.085 52.7601 23.0098 52.7108C22.9359 52.6616 22.8566 52.6192 22.7732 52.5851C22.6912 52.5509 22.6051 52.5235 22.5176 52.5071C22.3412 52.4716 22.1594 52.4716 21.9844 52.5071C21.8969 52.5235 21.8107 52.5509 21.7273 52.5851C21.6453 52.6192 21.566 52.6616 21.4922 52.7108C21.417 52.7601 21.3473 52.8175 21.2844 52.8804C21.2215 52.9433 21.1641 53.013 21.1148 53.0882C21.0643 53.162 21.0232 53.2413 20.9891 53.3233C20.9549 53.4067 20.9275 53.4929 20.9111 53.5804C20.8934 53.6679 20.8838 53.7581 20.8838 53.847C20.8838 53.9358 20.8934 54.0261 20.9111 54.1136C20.9275 54.2011 20.9549 54.2872 20.9891 54.3692C21.0232 54.4526 21.0643 54.5319 21.1148 54.6058C21.1641 54.681 21.2215 54.7507 21.2844 54.8136C21.3473 54.8765 21.417 54.9339 21.4922 54.9831C21.566 55.0325 21.6453 55.0748 21.7273 55.109C21.8107 55.1432 21.8969 55.1705 21.9844 55.1869C22.0719 55.2047 22.1621 55.2143 22.251 55.2143C22.3398 55.2143 22.4301 55.2047 22.5176 55.1869C22.6051 55.1705 22.6912 55.1432 22.7732 55.109C22.8566 55.0748 22.9359 55.0323 23.0098 54.9831C23.085 54.9339 23.1547 54.8765 23.2176 54.8136C23.2805 54.7507 23.3379 54.681 23.3871 54.6058C23.4363 54.5319 23.4787 54.4526 23.5129 54.3692C23.5471 54.2872 23.573 54.2011 23.5908 54.1136C23.6086 54.0261 23.6182 53.9358 23.6182 53.847C23.6182 53.7581 23.6086 53.6679 23.5908 53.5804Z" fill="black"/>
<path d="M62.8897 54.0015C62.8843 53.9878 62.8789 53.9743 62.8731 53.9609C61.6148 51.0164 58.6636 49.9281 55.1709 51.121L45.646 53.755C45.0953 52.0873 43.7217 50.6682 41.7795 49.9474C41.7674 49.943 41.7554 49.9386 41.7432 49.9345L31.2732 46.3809C30.4017 45.2545 27.672 42.3722 22.5611 42.3722C18.9893 42.3722 15.8296 44.8225 14.0219 47.4933H1.36719C0.61209 47.4933 0 48.1054 0 48.8605V66.0975C0 66.8526 0.61209 67.4647 1.36719 67.4647H9.49607C10.2512 67.4647 10.8633 66.8526 10.8633 66.0975V64.9171H14.6754C15.4305 64.9171 16.0426 64.305 16.0426 63.5499V63.1565C18.2648 63.3503 18.9957 63.7718 21.0366 64.9487C22.6062 65.8538 24.9784 67.2216 29.2503 69.1424C29.2701 69.1513 29.2902 69.1598 29.3103 69.1677C30.1302 69.4902 31.733 69.9969 33.709 69.9969C35.0844 69.9969 36.6409 69.7512 38.2386 69.027L59.292 61.4889C59.3295 61.4755 59.3664 61.4605 59.4025 61.4438C61.4146 60.5181 64.413 57.909 62.8897 54.0015ZM8.12889 64.7302H2.73438V50.2275H8.12889V64.7302ZM13.3082 62.1826H10.8633V50.2275H13.3082V62.1826ZM58.31 58.9359L37.266 66.4707C37.2475 66.4772 37.2225 66.4871 37.2043 66.4944C37.1859 66.502 37.1674 66.5099 37.1492 66.5182C34.2184 67.8652 31.4325 67.0588 30.3406 66.6343C26.2142 64.7775 24.0118 63.5075 22.4026 62.5796C20.1653 61.2896 19.0873 60.6678 16.0426 60.4163V49.4047C17.3385 47.2807 19.8517 45.1064 22.5612 45.1064C27.2077 45.1064 29.1766 48.1286 29.254 48.2506C29.4209 48.5221 29.6775 48.7267 29.9793 48.8291L40.845 52.517C42.5804 53.1683 43.4975 54.6545 43.076 56.1365C42.8814 56.8209 42.4319 57.3886 41.8104 57.7349C41.1942 58.0782 40.4819 58.1631 39.8029 57.9752L27.5539 54.0935C26.8337 53.8653 26.0656 54.264 25.8375 54.9838C25.6093 55.7036 26.008 56.472 26.7278 56.7002L38.9982 60.5886C39.0112 60.5927 39.0242 60.5967 39.0373 60.6004C39.5272 60.7397 40.0259 60.8086 40.5217 60.8086C41.4292 60.8086 42.3268 60.5774 43.1413 60.1235C44.4009 59.4217 45.3117 58.2714 45.706 56.8843C45.7375 56.7736 45.7654 56.6629 45.7896 56.5521L56.0548 53.7084C57.5374 53.202 59.4836 53.0194 60.3501 55.0151C61.247 57.3581 58.9159 58.6469 58.31 58.9359Z" fill="black"/>
<path d="M49.0902 17.9843C49.0725 17.8968 49.0465 17.8107 49.0109 17.7273C48.9768 17.6452 48.9357 17.5659 48.8852 17.4921C48.8359 17.4169 48.7785 17.3472 48.7156 17.2843C48.6527 17.2214 48.583 17.164 48.5078 17.1148C48.434 17.0656 48.3547 17.0232 48.2727 16.989C48.1893 16.9548 48.1031 16.9275 48.017 16.9111C47.8406 16.8755 47.6588 16.8755 47.4824 16.9111C47.3949 16.9275 47.3088 16.9548 47.2268 16.989C47.1434 17.0232 47.0641 17.0656 46.9902 17.1148C46.915 17.164 46.8453 17.2214 46.7824 17.2843C46.7195 17.3472 46.6621 17.4169 46.6129 17.4921C46.5637 17.5659 46.5213 17.6452 46.4871 17.7273C46.4529 17.8107 46.4256 17.8968 46.4092 17.9843C46.3914 18.0718 46.3818 18.162 46.3818 18.2509C46.3818 18.3398 46.3914 18.43 46.4092 18.5175C46.4256 18.605 46.4529 18.6911 46.4871 18.7732C46.5213 18.8566 46.5637 18.9359 46.6129 19.0097C46.6621 19.0849 46.7195 19.1546 46.7824 19.2175C46.8453 19.2804 46.915 19.3378 46.9902 19.387C47.0641 19.4363 47.1434 19.4786 47.2268 19.5128C47.3088 19.547 47.3949 19.573 47.4824 19.5907C47.5699 19.6085 47.6602 19.6181 47.749 19.6181C47.8379 19.6181 47.9281 19.6085 48.017 19.5907C48.1031 19.573 48.1893 19.547 48.2727 19.5128C48.3547 19.4786 48.434 19.4363 48.5078 19.387C48.583 19.3378 48.6527 19.2804 48.7156 19.2175C48.7785 19.1546 48.8359 19.0849 48.8852 19.0097C48.9357 18.9359 48.9768 18.8566 49.0109 18.7732C49.0465 18.6911 49.0725 18.605 49.0902 18.5175C49.108 18.43 49.1162 18.3398 49.1162 18.2509C49.1162 18.162 49.108 18.0718 49.0902 17.9843Z" fill="black"/>
<path d="M68.6328 4.63353H60.5039C59.7488 4.63353 59.1367 5.24562 59.1367 6.00072V7.18115H55.3246C54.5695 7.18115 53.9574 7.79324 53.9574 8.54834V8.94181C51.7352 8.74781 51.0043 8.32644 48.9635 7.14957C47.3939 6.24449 45.0217 4.87662 40.7497 2.95585C40.7299 2.94683 40.7099 2.93849 40.6895 2.93056C39.299 2.38341 35.6545 1.30689 31.7619 3.07097L26.2604 5.04082L21.623 0.403589C21.0891 -0.130298 20.2234 -0.130298 19.6895 0.403589L4.46481 15.6282C3.97235 16.1208 3.87788 16.9749 4.46481 17.5618L30.4806 43.5776C30.8969 43.994 31.8717 44.12 32.4142 43.5776L46.3137 29.6782C46.6751 29.7094 47.0501 29.7262 47.4388 29.7262C51.0107 29.7262 54.1703 27.2759 55.9778 24.6053H68.6328C69.3879 24.6053 70 23.9932 70 23.2381V6.00072C70 5.24562 69.3879 4.63353 68.6328 4.63353ZM20.6561 3.3038L23.7722 6.4199C22.846 6.99275 21.775 7.29927 20.6561 7.29927C19.5371 7.29927 18.4663 6.99289 17.54 6.4199L20.6561 3.3038ZM10.4813 19.7111L7.36516 16.5949L10.4813 13.4788C11.0541 14.4051 11.3606 15.476 11.3606 16.5949C11.3606 17.7138 11.0542 18.7847 10.4813 19.7111ZM31.4475 40.6772L28.3319 37.5617C30.2341 36.3878 32.6606 36.3878 34.5629 37.5617L31.4475 40.6772ZM36.5327 35.5921C33.5115 33.4005 29.3834 33.4005 26.3622 35.5921L12.451 21.6807C13.5186 20.2124 14.095 18.4486 14.095 16.5949C14.095 14.7411 13.5187 12.9775 12.451 11.5091L15.5705 8.38974C17.0388 9.45738 18.8025 10.0338 20.6563 10.0338C22.51 10.0338 24.2737 9.45738 25.7421 8.38974L28.6992 11.3468C28.0611 11.441 27.4389 11.6513 26.8587 11.9746C25.8787 12.5207 25.1098 13.3384 24.631 14.3277C23.0888 14.6133 21.661 15.3599 20.541 16.4798C17.5024 19.5185 17.5024 24.4627 20.5412 27.5014C22.0604 29.0206 24.0561 29.7803 26.0519 29.7803C28.0476 29.7803 30.0434 29.0207 31.5627 27.5014C32.5512 26.5129 33.2437 25.298 33.5906 23.974L38.2067 25.5407C37.6871 27.948 38.2193 30.4806 39.655 32.4699L36.5327 35.5921ZM28.2205 22.1509C28.2325 22.1553 28.2446 22.1596 28.2567 22.1637L30.9906 23.0917C30.7841 24.0234 30.317 24.8801 29.6293 25.5679C27.6567 27.5402 24.4471 27.5405 22.4748 25.5679C20.5022 23.5955 20.5022 20.386 22.4748 18.4134C22.9506 17.9374 23.5121 17.5653 24.1239 17.3131C24.3763 19.4134 25.8885 21.2855 28.2205 22.1509ZM41.625 30.4998C41.0972 29.6398 40.7986 28.6583 40.7515 27.6566C41.4064 28.13 42.2067 28.5939 43.1626 28.9621L41.625 30.4998ZM53.9573 22.693C52.6614 24.8173 50.1483 26.9916 47.4388 26.9916C46.9318 26.9916 46.4567 26.9555 46.0125 26.8912C46.0108 26.8909 46.009 26.8907 46.0072 26.8904C43.0546 26.4615 41.4664 24.7834 40.9429 24.119C40.915 24.0779 40.7962 23.9225 40.7785 23.8967C40.6193 23.612 40.3581 23.3831 40.0251 23.2701L29.1548 19.5807C27.4202 18.9297 26.5032 17.4442 26.9235 15.9627C26.9237 15.9618 26.924 15.9608 26.9243 15.9599C26.9247 15.9588 26.925 15.9575 26.9252 15.9564C27.1206 15.2742 27.5693 14.7083 28.1895 14.3628C28.8055 14.0195 29.5177 13.9344 30.1969 14.1226L42.446 18.0042C43.1659 18.2327 43.9343 17.8337 44.1623 17.1139C44.3904 16.3941 43.9918 15.6257 43.272 15.3975L33.5301 12.3104L33.4451 12.2254C33.4443 12.2246 33.4434 12.2236 33.4425 12.2228L28.3989 7.17923L32.734 5.62693C32.7486 5.6216 32.7667 5.6149 32.7812 5.60902C32.7849 5.60752 32.792 5.60478 32.7955 5.60328C32.8141 5.59576 32.8324 5.58783 32.8506 5.57949C35.7813 4.23253 38.5671 5.03876 39.6591 5.46341C43.7857 7.32019 45.9882 8.59017 47.5974 9.51808C49.8347 10.8083 50.9127 11.43 53.9573 11.6814V22.693ZM59.1367 21.8706H56.6918V9.91552H59.1367V21.8706ZM67.2656 21.8706H61.8711V7.36791H67.2656V21.8706Z" fill="black"/>
</g>
<defs>
<clipPath id="clip0_4_79">
<rect width="70" height="70" fill="white"/>
</clipPath>
</defs>
</svg>
