<svg width="70" height="70" viewBox="0 0 70 70" fill="none" xmlns="http://www.w3.org/2000/svg">
<g clip-path="url(#clip0_4_108)">
<path d="M68.8333 63H61.8333V38.367C62.2166 38.4514 62.6076 38.4961 63 38.5C66.22 38.4962 68.8295 35.8867 68.8333 32.6667C68.8333 32.5815 68.824 32.4966 68.8053 32.4135L66.472 21.9135C66.3533 21.3798 65.8801 21.0001 65.3333 21H61.8333V17.5C61.8333 16.8557 61.311 16.3333 60.6667 16.3333H51.3333V14H53.6667C54.311 14 54.8333 13.4776 54.8333 12.8333V1.16667C54.8333 0.522375 54.311 0 53.6667 0H16.3333C15.689 0 15.1667 0.522375 15.1667 1.16667V12.8333C15.1667 13.4776 15.689 14 16.3333 14H18.6667V16.3333H9.33333C8.68904 16.3333 8.16667 16.8557 8.16667 17.5V21H4.66667C4.11994 21.0001 3.64656 21.3798 3.528 21.9135L1.19467 32.4135C1.176 32.4966 1.16667 32.5815 1.16667 32.6667C1.17046 35.8867 3.78 38.4962 7 38.5C7.39244 38.4961 7.78342 38.4514 8.16667 38.367V63H1.16667C0.522375 63 0 63.5224 0 64.1667V68.8333C0 69.4776 0.522375 70 1.16667 70H68.8333C69.4776 70 70 69.4776 70 68.8333V64.1667C70 63.5224 69.4776 63 68.8333 63ZM64.4 23.3333L66.5 32.7833C66.437 34.6706 64.8884 36.1677 63 36.1667C62.3849 36.1665 61.7808 36.0026 61.25 35.6918C60.4332 35.2167 59.8421 34.433 59.6097 33.5172C59.5335 33.2402 59.4966 32.954 59.5 32.6667C59.5 32.6238 59.4977 32.5809 59.493 32.5383L58.4698 23.3333H64.4ZM53.6667 44.3333H42C41.3557 44.3333 40.8333 44.8557 40.8333 45.5V63H10.5V37.2913C10.9411 36.9657 11.3339 36.5792 11.6667 36.1433C13.5695 38.7206 17.2013 39.2675 19.7786 37.3647C20.2444 37.0208 20.6561 36.6091 21 36.1433C22.9028 38.7206 26.5347 39.2675 29.112 37.3647C29.5778 37.0208 29.9895 36.6091 30.3333 36.1433C32.2362 38.7206 35.868 39.2675 38.4453 37.3647C38.9111 37.0208 39.3228 36.6091 39.6667 36.1433C41.5695 38.7206 45.2013 39.2675 47.7786 37.3647C48.2444 37.0208 48.6561 36.6091 49 36.1433C50.9039 38.7206 54.5366 39.2666 57.1139 37.3628C57.5788 37.0194 57.9899 36.6082 58.3333 36.1433C58.666 36.5782 59.0589 36.9636 59.5 37.2878V63H54.8333V45.5C54.8333 44.8557 54.311 44.3333 53.6667 44.3333ZM52.5 46.6667V63H43.1667V46.6667H52.5ZM12.8333 32.7273L13.8833 23.3333H20.8693L19.8462 32.5383C19.8395 32.5809 19.8352 32.6236 19.8333 32.6667C19.8361 32.9636 19.7967 33.2593 19.7167 33.5452C19.2239 35.4143 17.3092 36.5301 15.4401 36.0373C14.2112 35.7134 13.2545 34.7487 12.9407 33.5172C12.8702 33.2598 12.8342 32.9942 12.8333 32.7273ZM22.1667 32.7273L23.2167 23.3333H29.1667V32.6667C29.1694 32.9636 29.1301 33.2593 29.05 33.5452C28.5572 35.4143 26.6426 36.5301 24.7734 36.0373C23.5445 35.7134 22.5878 34.7487 22.274 33.5172C22.2036 33.2598 22.1675 32.9942 22.1667 32.7273ZM31.5 32.6667V23.3333H38.5V32.6667C38.5028 32.9636 38.4634 33.2593 38.3833 33.5452C37.8906 35.4143 35.9759 36.5301 34.1068 36.0373C32.8778 35.7134 31.9212 34.7487 31.6073 33.5172C31.5319 33.2401 31.4959 32.9538 31.5 32.6667ZM40.8333 32.6667V23.3333H46.7833L47.8333 32.7273C47.8303 33.0035 47.791 33.278 47.7167 33.544C47.2239 35.4131 45.3092 36.5289 43.4401 36.0361C42.2112 35.7122 41.2545 34.7476 40.9407 33.516C40.8654 33.2394 40.8293 32.9534 40.8333 32.6667ZM49.1365 23.3333H56.1225L57.1725 32.7273C57.1694 33.0035 57.1302 33.278 57.0558 33.544C56.5631 35.4131 54.6484 36.5289 52.7793 36.0361C51.5503 35.7122 50.5937 34.7476 50.2798 33.516C50.2027 33.2395 50.1645 32.9537 50.1667 32.6667C50.1667 32.6238 50.1643 32.5809 50.1597 32.5383L49.1365 23.3333ZM17.5 11.6667V2.33333H52.5V11.6667H17.5ZM49 14V16.3333H21V14H49ZM10.5 18.6667H59.5V21H10.5V18.6667ZM7 36.1667C5.1116 36.1677 3.563 34.6706 3.5 32.7833L5.6 23.3333H11.5278L10.5047 32.5383C10.5007 32.5811 10.4993 32.6238 10.5 32.6667C10.5023 32.9627 10.463 33.2577 10.3833 33.5428C10.1481 34.4487 9.55981 35.2227 8.75 35.6918C8.21917 36.0026 7.61512 36.1665 7 36.1667ZM67.6667 67.6667H2.33333V65.3333H67.6667V67.6667Z" fill="black"/>
<path d="M35 44.3334H16.3333C15.689 44.3334 15.1667 44.8557 15.1667 45.5V57.1667C15.1667 57.811 15.689 58.3334 16.3333 58.3334H35C35.6443 58.3334 36.1667 57.811 36.1667 57.1667V45.5C36.1667 44.8557 35.6443 44.3334 35 44.3334ZM33.8333 56H17.5V46.6667H33.8333V56Z" fill="black"/>
</g>
<defs>
<clipPath id="clip0_4_108">
<rect width="70" height="70" fill="white"/>
</clipPath>
</defs>
</svg>
