<svg width="35" height="35" viewBox="0 0 35 35" fill="none" xmlns="http://www.w3.org/2000/svg">
<path d="M33.213 9.29873C32.8349 7.89303 31.7266 6.78492 30.3211 6.40641C27.7534 5.70386 17.4825 5.70386 17.4825 5.70386C17.4825 5.70386 7.21198 5.70386 4.6443 6.37977C3.26583 6.75789 2.13049 7.89323 1.75238 9.29873C1.07666 11.8662 1.07666 17.1908 1.07666 17.1908C1.07666 17.1908 1.07666 22.5423 1.75238 25.0829C2.13089 26.4884 3.23879 27.5965 4.6445 27.9751C7.23902 28.6778 17.4829 28.6778 17.4829 28.6778C17.4829 28.6778 27.7534 28.6778 30.3211 28.0019C31.7268 27.6236 32.8349 26.5155 33.2134 25.11C33.889 22.5423 33.889 17.2179 33.889 17.2179C33.889 17.2179 33.916 11.8662 33.213 9.29873ZM14.2125 22.1099V12.2718L22.7533 17.1908L14.2125 22.1099Z" fill="black"/>
</svg>
